<?xml version="1.0" encoding="UTF-8" standalone="no"?>
<svg
   xmlns:dc="http://purl.org/dc/elements/1.1/"
   xmlns:cc="http://creativecommons.org/ns#"
   xmlns:rdf="http://www.w3.org/1999/02/22-rdf-syntax-ns#"
   xmlns:svg="http://www.w3.org/2000/svg"
   xmlns="http://www.w3.org/2000/svg"
   xmlns:sodipodi="http://sodipodi.sourceforge.net/DTD/sodipodi-0.dtd"
   xmlns:inkscape="http://www.inkscape.org/namespaces/inkscape"
   inkscape:version="1.0 (4035a4f, 2020-05-01)"
   sodipodi:docname="action_icon_neg.svg"
   id="svg2548"
   viewBox="0 0 1200 1200"
   version="1.1"
   height="16pt"
   width="16pt">
  <metadata
     id="metadata2554">
    <rdf:RDF>
      <cc:Work
         rdf:about="">
        <dc:format>image/svg+xml</dc:format>
        <dc:type
           rdf:resource="http://purl.org/dc/dcmitype/StillImage" />
        <dc:title></dc:title>
      </cc:Work>
    </rdf:RDF>
  </metadata>
  <defs
     id="defs2552" />
  <sodipodi:namedview
     inkscape:current-layer="svg2548"
     inkscape:window-maximized="0"
     inkscape:window-y="84"
     inkscape:window-x="0"
     inkscape:cy="10.666667"
     inkscape:cx="10.666667"
     inkscape:zoom="34.453125"
     showgrid="false"
     id="namedview2550"
     inkscape:window-height="1189"
     inkscape:window-width="2244"
     inkscape:pageshadow="2"
     inkscape:pageopacity="0"
     guidetolerance="10"
     gridtolerance="10"
     objecttolerance="10"
     borderopacity="1"
     bordercolor="#666666"
     pagecolor="#ffffff" />
  <path
     style="fill:#ffffff;fill-opacity:1"
     id="path2546"
     d="m970.39 1024.8v-136.8c0-6.6289 5.375-12 12-12h136.8v-405.6h-426.43v555.34zm131.86-124.99h-108v107.83zm-433.51 126v-70.898h-186.93c-15.793 0-15.793-24 0-24h186.94v-60h-186.94c-15.793 0-15.793-24 0-24h186.94l-0.003906-229.77h-186.93c-15.793 0-15.793-24 0-24h186.94v-60h-186.94c-15.793 0-15.793-24 0-24h186.94l-0.003906-50.738c0-6.625 5.375-12 12-12h145.25l0.003906-206.69h-149.06v22.297c-0.035156 6.6484-2.6875 13.016-7.3906 17.715-4.6992 4.7031-11.066 7.3594-17.715 7.3906h-316.37c-6.6484-0.019531-13.012-2.6719-17.707-7.3789-4.6914-4.707-7.3281-11.082-7.3281-17.727v-22.297h-149.18v786.02zm181.32-579.41h56.449v-210.09c0-30.07-23.664-55.441-53.594-55.441h-175.99v34.898h161.16c3.1836 0 6.2383 1.2617 8.4883 3.5117s3.5117 5.3047 3.5117 8.4883zm80.473 0h200.69c3.1836 0 6.2344 1.2656 8.4883 3.5156 2.25 2.25 3.5117 5.3047 3.5117 8.4844v429.36c0.007812 3.2305-1.2891 6.3281-3.5977 8.5898l-147.84 147.82c-2.375 3-6.0469 4.6719-9.8672 4.4883h-51.359v23.809c0 43.199-34.559 79.465-77.617 79.465h-718.54c-43.199 0-77.617-36.266-77.617-79.465l0.003906-836.16c0-43.199 34.488-79.465 77.617-79.465h175.99l-0.003906-17.137c0.007813-6.6367 2.6484-13 7.3398-17.691 4.6914-4.6953 11.055-7.332 17.695-7.3398h77.375c12.312-63.215 90.145-88.992 137.54-44.039 12.504 11.766 20.98 27.176 24.215 44.039h77.305c6.6523-0.007813 13.035 2.6367 17.738 7.3438 4.6953 4.6914 7.3438 11.051 7.3672 17.688v17.137h175.99c43.199 0 77.617 36.266 77.617 79.465zm-24 602.4c-30.527 0-48.551 0.21484-64.344 0.28906v0.003906c-1.3086 0.47656-2.6875 0.72656-4.0781 0.74219h-688.8c-6.6289 0-12-5.3711-12-12v-810.1c0-6.625 5.3711-12 12-12h161.16v-34.871h-176.07c-29.93 0-53.617 25.367-53.617 55.441l0.003906 836.23c0.023438 30.074 23.711 55.465 53.613 55.465h718.51c29.93 0 53.594-25.391 53.594-55.465zm-497.93-114.62c-14.641 0-14.641 22.246 0 22.246 14.641 0 14.688-22.246 0-22.246zm-24.84-13.754c22.105-22.031 60-6.3359 60 24.84s-37.895 46.945-60 24.887v0.003906c-6.6016-6.5898-10.312-15.535-10.312-24.863 0-9.3281 3.7109-18.273 10.312-24.863zm24.84-80.688c-14.641 0-14.641 22.32 0 22.32 14.641 0 14.688-22.32 0-22.32zm-24.84-13.68c22.105-22.105 60-6.3125 60 24.84 0 31.152-37.895 46.945-60 24.84-6.6055-6.5781-10.316-15.516-10.316-24.84 0-9.3203 3.7109-18.258 10.316-24.84zm-79.871-126.27c-33.602 0-50.398 40.801-26.734 64.559 23.664 23.762 64.488 6.8164 64.488-26.734l-0.003906 0.003907c0.011719-10.023-3.957-19.641-11.039-26.734-7.082-7.0938-16.691-11.086-26.715-11.09zm-43.68-5.832c38.855-38.855 105.46-11.16 105.46 43.656 0 54.816-66.602 82.535-105.46 43.68l-0.003907 0.003906c-11.594-11.574-18.109-27.285-18.109-43.668 0-16.383 6.5156-32.094 18.109-43.668zm329.09 50.398c15.77 0 15.77 24 0 24l-170.98 0.003906c-15.793 0-15.793-24 0-24zm-180.7-147.96c-14.641 0-14.641 22.246 0 22.246 14.641 0 14.688-22.246 0-22.246zm-24.84-13.68c22.105-22.105 60-6.4062 60 24.84s-37.895 46.922-60 24.816c-6.6055-6.5742-10.316-15.508-10.316-24.828 0-9.3164 3.7109-18.25 10.316-24.828zm24.84-80.688c-14.641 0-14.641 22.246 0 22.246 14.641 0 14.688-22.246 0-22.246zm-24.84-13.754c22.105-22.031 60-6.3125 60 24.84 0 31.152-37.895 46.945-60 24.84v0.003907c-6.6055-6.582-10.316-15.52-10.316-24.84 0-9.3242 3.7109-18.262 10.316-24.84zm-79.871-126.19c-33.602 0-50.398 40.801-26.734 64.488s64.488 6.8867 64.488-26.734h-0.003906c0-10.012-3.9766-19.613-11.059-26.695-7.0781-7.0781-16.68-11.055-26.695-11.055zm-43.68-5.9023c38.855-38.855 105.46-11.16 105.46 43.656-0.003907 54.816-66.605 82.559-105.46 43.754-11.59-11.594-18.105-27.312-18.105-43.707 0-16.391 6.5156-32.113 18.105-43.703zm329.09 50.398c15.77 0 15.77 24 0 24l-170.98 0.003907c-15.793 0-15.793-24 0-24zm-95.668-315.74c32.855 0 49.465 39.938 26.184 63.215-23.281 23.281-63.191 6.7461-63.191-26.207 0.011719-9.8125 3.9141-19.215 10.852-26.152 6.9375-6.9414 16.344-10.844 26.156-10.855zm9.2656 27.84h-0.003907c-3.7266-3.7266-9.332-4.8398-14.199-2.8242-4.8711 2.0195-8.0469 6.7695-8.0469 12.039 0 5.2734 3.1758 10.023 8.0469 12.043 4.8672 2.0156 10.473 0.90234 14.199-2.8242 2.4453-2.4453 3.8203-5.7617 3.8203-9.2188s-1.375-6.7695-3.8203-9.2148zm-79.609 19.992h-87.84l-1.0078 1.0312v122.4l1.0078 1.1055 316.97-0.14453 0.48047-0.96094v-122.4h-0.003907c-0.011719-0.28906-0.13281-0.5625-0.33594-0.76562-0.19141-0.19922-0.46875-0.29688-0.74219-0.26562h-87.816c-6.4258 0.007813-11.719-5.0508-12-11.473-2.3984-49.414-62.398-73.367-98.398-39.215-10.742 10.059-17.242 23.836-18.168 38.52 0.042968 3.2109-1.1992 6.3086-3.457 8.5938-2.2539 2.2891-5.332 3.5742-8.543 3.5742z" />
</svg>
