<svg height="512pt" viewBox="-26 0 512 512" width="512pt" xmlns="http://www.w3.org/2000/svg"><path d="m449.8125 409.757812c-.710938-.921874-3.152344-4.058593-4.683594-5.804687-6.726562-7.679687-22.488281-25.667969-44.398437-41.539063-27.871094-20.179687-56.449219-30.414062-84.949219-30.414062-28.496094 0-57.074219 10.234375-84.945312 30.414062-21.910157 15.871094-37.671876 33.859376-44.398438 41.542969-1.53125 1.742188-3.96875 4.878907-4.683594 5.796875l-9.484375 12.242188 9.484375 12.246094c.710938.921874 3.152344 4.058593 4.683594 5.804687 6.730469 7.679687 22.492188 25.671875 44.398438 41.539063 27.871093 20.179687 56.449218 30.414062 84.945312 30.414062 28.5 0 57.078125-10.234375 84.949219-30.414062 21.910156-15.871094 37.667969-33.859376 44.394531-41.535157 1.53125-1.75 3.976562-4.886719 4.6875-5.808593l9.480469-12.242188zm-134.03125 62.242188c-29.585938 0-60.398438-16.8125-91.707031-50 20.257812-21.476562 40.3125-36.085938 59.957031-43.730469-5.039062 6.695313-8.03125 15.019531-8.03125 24.046875 0 22.089844 17.90625 40 40 40 22.089844 0 40-17.910156 40-40 0-8.917968-2.921875-17.148437-7.851562-23.800781 19.449218 7.707031 39.292968 22.230469 59.339843 43.484375-31.304687 33.191406-62.117187 50-91.707031 50zm-154.476562 0h-101.304688c-11.027344 0-20-8.972656-20-20v-392c0-11.027344 8.972656-20 20-20h174.890625v71.109375c0 33.085937 26.914063 60 60 60h71.109375v128.792969c13.5 4.296875 26.738281 10.335937 39.890625 18.105468v-175.152343l-142.132813-142.855469h-203.757812c-33.085938 0-60 26.914062-60 60v392c0 33.085938 26.914062 60 60 60h144.683594c-19.730469-14.695312-34.597656-30.234375-43.378906-40zm113.585937-360.890625v-43.234375l62.972656 63.234375h-42.972656c-11.03125 0-20-8.96875-20-20zm51.109375 139.890625h-246v-40h246zm-246 40h126v40h-126zm0 0"/></svg>