<svg xmlns="http://www.w3.org/2000/svg" xmlns:xlink="http://www.w3.org/1999/xlink" version="1.1" x="0px" y="0px"  width="24pt" height="24pt"  viewBox="120 0 512 640" style="enable-background:new 0 0 512 512;" xml:space="preserve"><style type="text/css">
	.st0{fill-rule:evenodd;clip-rule:evenodd;}
</style><path d="M369.4,45H142.5C121.9,45,105,61.9,105,82.6v346.9c0,20.7,16.9,37.6,37.6,37.6h196.5v-18.8c0-27,22.1-49.1,49.1-49.1H407  V82.6C407,61.9,390.1,45,369.4,45L369.4,45z M241.1,168.3v41.5l11.2-9.1c2.2-1.8,5.2-1.7,7.3,0l11.2,9.1v-41.5H241.1z M282.4,168.3  v53.6h0c0,4.7-5.6,7.6-9.4,4.5l-17-13.8L239.3,226c-4.2,3.7-9.8,0.5-9.8-4.2v-53.6h-30.7v107.2h114.3V168.3H282.4z M136,423.4  c-7.6,0-7.6-11.6,0-11.6h153.3c7.6,0,7.6,11.6,0,11.6H136z M136,385.9c-7.6,0-7.6-11.6,0-11.6h86.7c7.6,0,7.6,11.6,0,11.6H136z   M382.6,216.1c7.6,0,7.6,11.6,0,11.6h-10.2c-3,59.8-50.9,107.8-110.7,110.7v10.2c0,7.6-11.6,7.6-11.6,0v-10.2  c-59.8-2.9-107.8-50.9-110.7-110.7h-10.2c-7.6,0-7.6-11.6,0-11.6h10.2c2.9-59.8,50.9-107.8,110.7-110.7V95.2c0-7.6,11.6-7.6,11.6,0  v10.2c59.8,2.9,107.8,50.9,110.7,110.7H382.6z M142.5,33.4h226.9c27.1,0,49.2,22.1,49.2,49.2v322.3c0,1.6-0.6,3-1.7,4.1l-68.3,68.3  c-0.5,0.7-2.4,1.4-3.7,1.4H142.5c-27.1,0-49.1-22.1-49.1-49.2V82.6C93.4,55.5,115.5,33.4,142.5,33.4L142.5,33.4z"/><text x="0" y="527" fill="#000000" font-size="5px" font-weight="bold" font-family="'Helvetica Neue', Helvetica, Arial-Unicode, Arial, Sans-serif">Created by aristeles</text><text x="0" y="532" fill="#000000" font-size="5px" font-weight="bold" font-family="'Helvetica Neue', Helvetica, Arial-Unicode, Arial, Sans-serif">from the Noun Project</text></svg>