<?xml version="1.0" encoding="UTF-8" standalone="no"?>
<svg
   xmlns:dc="http://purl.org/dc/elements/1.1/"
   xmlns:cc="http://creativecommons.org/ns#"
   xmlns:rdf="http://www.w3.org/1999/02/22-rdf-syntax-ns#"
   xmlns:svg="http://www.w3.org/2000/svg"
   xmlns="http://www.w3.org/2000/svg"
   xmlns:sodipodi="http://sodipodi.sourceforge.net/DTD/sodipodi-0.dtd"
   xmlns:inkscape="http://www.inkscape.org/namespaces/inkscape"
   inkscape:version="1.0 (4035a4f, 2020-05-01)"
   sodipodi:docname="scope_icon_neg.svg"
   id="svg1454"
   xml:space="preserve"
   style="enable-background:new 0 0 512 512;"
   viewBox="120 0 512 640"
   height="24pt"
   width="24pt"
   y="0px"
   x="0px"
   version="1.1"><metadata
     id="metadata1460"><rdf:RDF><cc:Work
         rdf:about=""><dc:format>image/svg+xml</dc:format><dc:type
           rdf:resource="http://purl.org/dc/dcmitype/StillImage" /></cc:Work></rdf:RDF></metadata><defs
     id="defs1458" /><sodipodi:namedview
     inkscape:current-layer="svg1454"
     inkscape:window-maximized="0"
     inkscape:window-y="84"
     inkscape:window-x="0"
     inkscape:cy="16"
     inkscape:cx="16"
     inkscape:zoom="22.96875"
     showgrid="false"
     id="namedview1456"
     inkscape:window-height="486"
     inkscape:window-width="772"
     inkscape:pageshadow="2"
     inkscape:pageopacity="0"
     guidetolerance="10"
     gridtolerance="10"
     objecttolerance="10"
     borderopacity="1"
     bordercolor="#666666"
     pagecolor="#ffffff" /><style
     id="style1446"
     type="text/css">
	.st0{fill-rule:evenodd;clip-rule:evenodd;}
</style><path
     style="fill:#ffffff"
     id="path1448"
     d="M369.4,45H142.5C121.9,45,105,61.9,105,82.6v346.9c0,20.7,16.9,37.6,37.6,37.6h196.5v-18.8c0-27,22.1-49.1,49.1-49.1H407  V82.6C407,61.9,390.1,45,369.4,45L369.4,45z M241.1,168.3v41.5l11.2-9.1c2.2-1.8,5.2-1.7,7.3,0l11.2,9.1v-41.5H241.1z M282.4,168.3  v53.6h0c0,4.7-5.6,7.6-9.4,4.5l-17-13.8L239.3,226c-4.2,3.7-9.8,0.5-9.8-4.2v-53.6h-30.7v107.2h114.3V168.3H282.4z M136,423.4  c-7.6,0-7.6-11.6,0-11.6h153.3c7.6,0,7.6,11.6,0,11.6H136z M136,385.9c-7.6,0-7.6-11.6,0-11.6h86.7c7.6,0,7.6,11.6,0,11.6H136z   M382.6,216.1c7.6,0,7.6,11.6,0,11.6h-10.2c-3,59.8-50.9,107.8-110.7,110.7v10.2c0,7.6-11.6,7.6-11.6,0v-10.2  c-59.8-2.9-107.8-50.9-110.7-110.7h-10.2c-7.6,0-7.6-11.6,0-11.6h10.2c2.9-59.8,50.9-107.8,110.7-110.7V95.2c0-7.6,11.6-7.6,11.6,0  v10.2c59.8,2.9,107.8,50.9,110.7,110.7H382.6z M142.5,33.4h226.9c27.1,0,49.2,22.1,49.2,49.2v322.3c0,1.6-0.6,3-1.7,4.1l-68.3,68.3  c-0.5,0.7-2.4,1.4-3.7,1.4H142.5c-27.1,0-49.1-22.1-49.1-49.2V82.6C93.4,55.5,115.5,33.4,142.5,33.4L142.5,33.4z" /><text
     style="fill:#ffffff;"
     id="text1450"
     font-family="'Helvetica Neue', Helvetica, Arial-Unicode, Arial, Sans-serif"
     font-weight="bold"
     font-size="5px"
     fill="#000000"
     y="527"
     x="0">Created by aristeles</text><text
     style="fill:#ffffff;"
     id="text1452"
     font-family="'Helvetica Neue', Helvetica, Arial-Unicode, Arial, Sans-serif"
     font-weight="bold"
     font-size="5px"
     fill="#000000"
     y="532"
     x="0">from the Noun Project</text></svg>
